<?xml version="1.0" encoding="UTF-8" standalone="no"?>
<!DOCTYPE svg PUBLIC "-//W3C//DTD SVG 1.1//EN" "http://www.w3.org/Graphics/SVG/1.1/DTD/svg11.dtd">
<svg width="100%" height="100%" viewBox="0 0 441 443" version="1.1" xmlns="http://www.w3.org/2000/svg" xmlns:xlink="http://www.w3.org/1999/xlink" xml:space="preserve" xmlns:serif="http://www.serif.com/" style="fill-rule:evenodd;clip-rule:evenodd;stroke-linecap:round;stroke-linejoin:round;stroke-miterlimit:2;">
    <path d="M157.09,310.329l3.751,3.371l132.952,-160.2c5.621,2.247 12.547,10.645 19.38,19.919c6.174,-8.987 -34.164,-46.922 -35.261,-45.041c-4.039,1.251 -7.149,4.186 -7.357,12.382c6.58,1.246 13.159,3.746 19.739,8.581l-133.204,160.988Z" style="fill:#a72920;"/>
    <path d="M157.09,310.329l3.751,3.371l132.952,-160.2c5.621,2.247 12.547,10.645 19.38,19.919c6.174,-8.987 -34.164,-46.922 -35.261,-45.041c-4.039,1.251 -7.149,4.186 -7.357,12.382c6.58,1.246 13.159,3.746 19.739,8.581l-133.204,160.988Z" style="fill:none;stroke:#882920;stroke-width:2.65px;"/>
    <path d="M148.639,156.035l139.176,152.585l2.759,-2.287l-138.346,-153.708c7.895,-6.08 15.791,-7.856 23.687,-6.998c1.529,-3.934 -0.244,-7.79 -2.782,-10.049c-2.165,-3.217 -4.167,-5.25 -9.69,-7.268c-4.835,5.879 -3.958,5.397 -12.382,12.472c-7.44,6.544 -13.824,13.793 -18.393,22.251c-3.214,6.289 -5.428,13.091 -1.704,15.791c2.864,-9.702 9.307,-16.915 17.675,-22.789Z" style="fill:#a72920;"/>
    <path d="M148.639,156.035l139.176,152.585l2.759,-2.287l-138.346,-153.708c7.895,-6.08 15.791,-7.856 23.687,-6.998c1.529,-3.934 -0.244,-7.79 -2.782,-10.049c-2.165,-3.217 -4.167,-5.25 -9.69,-7.268c-4.835,5.879 -3.958,5.397 -12.382,12.472c-7.44,6.544 -13.824,13.793 -18.393,22.251c-3.214,6.289 -5.428,13.091 -1.704,15.791c2.864,-9.702 9.307,-16.915 17.675,-22.789Z" style="fill:none;stroke:#882920;stroke-width:2.65px;"/>
    <path d="M193.771,423.379l55.292,0l-0,17.944l7.402,0l0,-440l-7.402,0l-0,24.562l-55.292,0l0,-24.562l-7.402,0l-0,440l7.402,0l0,-17.944Zm0,-393.008l0,244.741l55.292,0l-0,-244.741l-55.292,0Zm0,388.521l55.292,0l-0,-139.294l-55.292,-0l0,139.294Z" style="fill:#a72920;"/>
    <path d="M193.771,423.379l55.292,0l-0,17.944l7.402,0l0,-440l-7.402,0l-0,24.562l-55.292,0l0,-24.562l-7.402,0l-0,440l7.402,0l0,-17.944Zm0,-393.008l0,244.741l55.292,0l-0,-244.741l-55.292,0Zm0,388.521l55.292,0l-0,-139.294l-55.292,-0l0,139.294Z" style="fill:none;stroke:#882920;stroke-width:2.65px;"/>
    <path d="M153.787,258.952c-0.533,-0.922 -10.857,-14.002 -11.244,-12.661c-0.436,1.759 -1.877,5.472 -1.538,6.813c0.291,0.963 0.436,2.933 0.291,4.315c-0.146,1.76 0,3.101 0.581,4.4c0.436,1.047 0.775,2.891 0.727,4.064c-0.049,1.467 0.29,2.891 1.017,4.19c0.581,1.132 1.211,3.143 1.405,4.484c0.29,1.717 0.823,3.016 1.889,4.315c0.823,1.006 1.502,2.263 1.502,2.766c0.048,1.382 1.598,4.106 3.245,5.614c0.775,0.713 1.696,2.137 2.035,3.143c0.436,1.131 1.501,2.514 2.955,3.813c1.259,1.089 2.567,2.556 2.906,3.184c0.678,1.425 3.003,3.562 4.941,4.525c0.727,0.419 1.356,0.88 1.356,1.048c0,0.712 3.682,3.813 5.474,4.567c1.017,0.461 2.568,1.508 3.343,2.305c1.501,1.508 4.602,3.1 5.909,3.1c0.388,-0 1.744,0.754 2.955,1.676c1.405,1.048 3.246,1.928 4.99,2.347c1.501,0.377 3.294,1.005 3.972,1.382c1.889,1.09 3.536,1.634 6.104,1.928c1.307,0.167 3.342,0.67 4.553,1.173c1.453,0.587 3.197,0.922 5.328,0.922c1.744,0.042 3.681,0.293 4.312,0.586c0.823,0.377 2.277,0.503 4.844,0.336c2.034,-0.126 4.65,0 5.764,0.209c1.599,0.335 2.81,0.293 4.844,-0.084c1.551,-0.293 4.312,-0.586 6.153,-0.586c2.179,-0.042 3.923,-0.336 4.941,-0.796c0.871,-0.378 2.518,-0.713 3.681,-0.713c1.356,0 3.149,-0.419 4.989,-1.215c1.551,-0.67 3.779,-1.341 4.893,-1.508c1.114,-0.126 3.052,-0.88 4.311,-1.592c3.294,-1.886 3.149,-1.844 5.377,-2.347c1.114,-0.251 3.052,-1.257 4.36,-2.262c1.259,-0.964 3.391,-2.221 4.699,-2.808c1.501,-0.628 2.955,-1.718 3.875,-2.807c0.775,-1.006 1.744,-1.802 2.083,-1.802c0.969,0 4.796,-3.184 5.425,-4.525c0.339,-0.629 1.454,-1.676 2.519,-2.305c1.357,-0.796 2.374,-1.927 3.294,-3.645c0.775,-1.383 1.938,-2.891 2.616,-3.352c1.308,-0.88 3.73,-4.735 3.73,-5.908c0,-0.377 0.339,-0.964 0.824,-1.257c1.114,-0.838 3.051,-4.567 3.051,-5.95c0,-0.628 0.582,-1.885 1.26,-2.807c0.969,-1.215 1.405,-2.472 1.598,-4.525c0.194,-1.551 0.63,-3.268 1.018,-3.855c0.499,-0.756 1.303,-5.337 1.597,-8.65l-9.393,-10.762c-0.012,0.011 -3.447,4.251 -2.619,5.878c0.533,1.048 0.581,1.634 0.242,2.011c-1.017,1.048 -1.405,3.185 -1.017,5.154c0.387,1.634 0.29,2.095 -0.582,3.101c-0.775,0.922 -0.968,1.718 -0.92,3.855c-0,1.843 -0.194,2.765 -0.581,2.891c-1.017,0.335 -2.228,3.016 -2.228,4.818c0,1.257 -0.291,1.886 -0.969,2.305c-1.26,0.754 -2.907,3.519 -2.907,4.86c-0,0.671 -0.678,1.509 -1.937,2.43c-1.308,0.964 -2.132,2.053 -2.568,3.31c-0.484,1.425 -0.969,2.012 -2.277,2.598c-1.162,0.503 -2.034,1.383 -2.906,2.891c-0.678,1.174 -1.502,2.179 -1.889,2.179c-1.26,0.042 -3.779,1.844 -4.941,3.478c-0.678,0.922 -1.55,1.592 -2.083,1.592c-1.308,-0 -3.972,1.55 -5.183,2.975c-0.63,0.796 -1.405,1.215 -2.18,1.215c-1.55,0 -3.536,0.88 -4.99,2.263c-0.92,0.838 -1.647,1.089 -3.245,1.089c-1.502,0 -2.664,0.377 -4.408,1.383c-1.744,1.006 -2.713,1.341 -3.391,1.089c-1.211,-0.377 -4.118,0.126 -5.619,1.006c-0.775,0.419 -1.841,0.545 -3.633,0.377c-1.744,-0.126 -3.198,0.042 -4.699,0.503c-1.599,0.545 -2.374,0.628 -3.1,0.293c-1.115,-0.545 -5.135,-0.545 -6.588,-0.084c-0.63,0.21 -1.599,0.042 -2.81,-0.502c-1.55,-0.671 -2.374,-0.797 -4.989,-0.545c-2.083,0.167 -3.101,0.126 -3.101,-0.168c0,-0.754 -3.197,-1.676 -5.813,-1.676c-1.308,0 -2.422,-0.167 -2.422,-0.377c-0,-0.796 -2.906,-2.137 -5.134,-2.43c-1.793,-0.21 -2.713,-0.629 -4.118,-1.844c-1.308,-1.131 -2.47,-1.718 -3.827,-1.885c-1.453,-0.21 -2.131,-0.587 -2.809,-1.592c-0.824,-1.174 -3.633,-2.724 -6.007,-3.352c-0.484,-0.126 -0.872,-0.587 -0.872,-1.048c-0,-1.047 -2.761,-3.478 -4.747,-4.19c-1.163,-0.419 -1.55,-0.838 -1.55,-1.634c-0,-0.754 -0.727,-1.676 -2.326,-3.017c-1.404,-1.173 -2.518,-2.556 -2.858,-3.603c-0.339,-0.922 -1.453,-2.389 -2.518,-3.269c-1.066,-0.879 -1.793,-1.885 -1.647,-2.178c0.339,-0.796 -0.679,-3.143 -2.035,-4.777c-0.775,-0.922 -1.211,-1.969 -1.211,-3.017c-0,-1.592 -1.453,-4.609 -2.422,-5.154c-0.339,-0.167 -0.291,-0.544 0.048,-1.131c0.582,-0.964 0.09,-4.794 -0.975,-6.554Zm-5.225,10.074c1.356,1.005 3.73,2.849 5.28,4.148c2.277,1.885 2.81,2.598 2.81,3.645c0,0.754 -0.097,1.341 -0.194,1.341c-0.533,0 -6.152,-3.017 -7.557,-4.022c-1.841,-1.383 -3.391,-3.897 -3.391,-5.615c0,-0.67 0.145,-1.257 0.291,-1.257c0.145,-0 1.356,0.796 2.761,1.76Zm90.682,44.749c0.436,0.587 -3.633,4.651 -6.104,6.118c-1.453,0.88 -2.713,1.215 -4.844,1.34c-1.55,0.084 -2.858,0.042 -2.858,-0.125c-0,-0.168 0.581,-0.713 1.356,-1.173c0.727,-0.503 2.277,-1.718 3.488,-2.682c3.827,-3.059 8.09,-4.693 8.962,-3.478Zm56.046,-45.126c2.616,5.321 2.858,7.961 0.872,10.559c-0.63,0.838 -0.969,1.047 -1.163,0.628c-1.356,-3.939 -2.712,-8.925 -2.712,-10.14c-0,-1.508 0.823,-3.687 1.404,-3.687c0.146,0 0.872,1.215 1.599,2.64Zm-40.255,42.487c-2.954,5.069 -5.667,7.248 -9.058,7.248l-1.308,0l0.969,-0.963c0.533,-0.503 2.083,-2.347 3.439,-4.149c2.471,-3.184 4.311,-4.692 6.152,-5.028c1.453,-0.251 1.405,0.168 -0.194,2.892Zm33.861,-22.962c0,2.556 -1.308,5.363 -2.907,6.243l-1.017,0.545l0.145,-6.076c0.146,-5.782 0.194,-6.117 1.357,-7.164l1.211,-1.132l0.581,2.682c0.339,1.424 0.581,3.645 0.63,4.902Zm-124.591,0.671c1.696,1.592 2.083,2.933 0.727,2.555c-0.485,-0.125 -2.325,-0.628 -4.069,-1.089c-1.744,-0.461 -3.924,-1.257 -4.844,-1.802c-1.841,-1.089 -3.827,-3.394 -3.827,-4.525c0,-0.628 0.775,-0.461 5.232,1.341c3.245,1.299 5.764,2.598 6.781,3.52Zm5.28,9.804c2.955,0.461 6.055,1.132 6.879,1.467c1.308,0.628 2.47,1.801 2.47,2.556c0,0.167 -2.034,0.167 -4.456,-0c-5.329,-0.336 -8.865,-1.551 -10.221,-3.562c-0.485,-0.67 -0.727,-1.257 -0.485,-1.257c0.194,-0 2.81,0.377 5.813,0.796Zm101.581,2.011c-1.647,6.579 -2.858,8.716 -5.667,10.182c-1.986,1.048 -3.004,1.09 -2.519,0.084c0.194,-0.377 1.162,-2.472 2.083,-4.609c1.695,-3.981 4.02,-6.788 5.619,-6.788c0.63,-0 0.727,0.252 0.484,1.131Zm-89.47,3.73c1.259,0.125 2.664,0.67 3.584,1.34c1.405,0.964 1.453,1.132 0.63,1.383c-0.533,0.168 -3.052,0.335 -5.668,0.335c-5.28,0.042 -7.75,-0.67 -9.252,-2.681l-0.823,-1.048l4.747,0.21c2.616,0.125 5.667,0.335 6.782,0.461Zm101.823,-13.283c0.145,4.274 -0.678,6.872 -2.616,8.674c-1.695,1.55 -2.907,1.885 -2.471,0.67c0.146,-0.377 0.485,-2.514 0.776,-4.735c0.484,-4.274 1.017,-5.992 2.276,-7.165c1.502,-1.466 1.938,-0.922 2.035,2.556Zm14.484,-37.752c3.584,4.064 4.602,6.955 3.487,9.553c-0.532,1.132 -0.629,1.006 -3.439,-3.31c-2.809,-4.274 -3.827,-6.997 -3.197,-8.464c0.194,-0.335 0.388,-0.628 0.484,-0.628c0.097,-0 1.26,1.299 2.665,2.849Zm-5.329,23.716c1.308,4.315 1.356,6.536 0.097,8.589c-1.744,2.975 -2.18,2.556 -3.052,-2.807c-0.436,-2.724 -0.63,-5.489 -0.484,-6.16c0.29,-1.34 1.501,-3.142 2.034,-3.142c0.194,-0 0.824,1.592 1.405,3.52Zm5.377,-14.791c1.647,2.849 2.083,4.022 2.083,5.698c0,2.011 -0.678,3.897 -1.453,3.897c-0.194,0 -1.26,-2.011 -2.422,-4.525c-1.405,-3.059 -2.083,-5.112 -2.035,-6.411c0,-3.645 1.018,-3.268 3.827,1.341Zm-143.967,16.341c4.069,2.095 6.249,3.855 6.685,5.489l0.339,1.173l-1.841,-0.67c-7.363,-2.64 -10.85,-5.28 -10.85,-8.171c0,-0.838 0.096,-0.838 1.114,-0.293c0.581,0.377 2.664,1.466 4.553,2.472Zm-1.017,-11.062c0.727,1.467 0.92,3.059 0.291,3.059c-0.679,-0 -6.685,-4.483 -7.703,-5.74c-1.356,-1.676 -2.131,-3.813 -1.792,-5.028c0.291,-0.964 0.581,-0.797 4.408,2.681c2.229,2.011 4.408,4.274 4.796,5.028Zm111.124,36.747c-0,0.712 -2.761,6.62 -3.73,7.919c-1.26,1.76 -3.682,3.226 -5.329,3.226c-0.969,0 -0.872,-0.251 1.405,-4.106c2.567,-4.19 4.311,-6.201 5.958,-6.788c1.114,-0.419 1.696,-0.503 1.696,-0.251Zm-117.131,-50.155c3.924,4.567 4.747,5.95 4.747,7.961l0,1.551l-2.954,-2.473c-4.409,-3.771 -6.249,-6.955 -5.474,-9.595c0.145,-0.586 0.339,-1.089 0.387,-1.089c0.097,-0 1.55,1.634 3.294,3.645Zm74.406,61.091c0.387,0.293 -1.793,1.801 -5.183,3.603c-3.052,1.634 -7.8,2.179 -9.495,1.09c-0.872,-0.587 -0.678,-0.713 3.149,-2.389c2.276,-1.005 4.892,-2.053 5.813,-2.346c1.647,-0.545 5.086,-0.545 5.716,0.042Zm9.01,-0.294c0.339,0.461 -5.232,4.526 -7.654,5.615c-2.034,0.922 -5.764,1.215 -6.588,0.503c-0.436,-0.377 5.474,-4.064 9.204,-5.699c1.695,-0.796 4.602,-1.005 5.038,-0.419Zm-18.506,-0.586c0.728,0.461 0.292,0.754 -3.535,2.388c-3.488,1.467 -4.892,1.844 -6.927,1.844c-2.325,-0 -5.183,-0.796 -5.135,-1.425c0.049,-0.126 2.374,-0.964 5.232,-1.802c5.377,-1.592 8.96,-1.927 10.365,-1.005Zm-19.52,-5.28c0.92,0.378 1.743,0.922 1.84,1.216c0.339,0.838 -8.186,2.095 -11.19,1.634c-1.598,-0.252 -4.65,-2.053 -4.65,-2.724c-0,-0.209 1.599,-0.377 3.488,-0.419c1.937,-0.042 3.633,-0.168 3.73,-0.293c0.581,-0.461 5.328,-0.084 6.782,0.586Zm55.416,3.311c-1.55,2.136 -4.36,5.363 -5.328,6.075c-1.793,1.383 -6.927,2.682 -6.927,1.76c0,-0.545 7.556,-7.458 8.961,-8.213c0.775,-0.419 2.035,-0.754 2.81,-0.754l1.308,0l-0.824,1.132Zm-45.486,0.083c1.259,0.755 1.308,0.838 0.484,1.215c-0.532,0.21 -2.422,0.797 -4.214,1.341c-4.311,1.215 -8.477,1.048 -10.27,-0.419c-0.678,-0.544 -1.114,-1.047 -1.017,-1.173c0.097,-0.084 2.035,-0.503 4.263,-0.922c5.522,-1.005 8.962,-1.047 10.754,-0.042Zm75.181,-15.587c-0.388,3.981 -1.018,5.783 -2.568,7.584c-0.969,1.132 -4.02,2.975 -4.02,2.472c0,-0.628 2.954,-10.097 3.39,-10.726c0.436,-0.754 2.762,-2.556 3.294,-2.556c0.097,-0 0.097,1.467 -0.096,3.226Zm-114.564,-4.692c5.135,1.34 7.557,2.514 8.478,4.064l0.775,1.299l-2.955,-0.293c-4.844,-0.461 -7.848,-1.425 -9.834,-3.185c-1.937,-1.676 -2.567,-3.687 -0.969,-3.142c0.436,0.167 2.471,0.712 4.505,1.257Z" style="fill:#a72920;"/>
    <path d="M153.787,258.952c-0.533,-0.922 -10.857,-14.002 -11.244,-12.661c-0.436,1.759 -1.877,5.472 -1.538,6.813c0.291,0.963 0.436,2.933 0.291,4.315c-0.146,1.76 0,3.101 0.581,4.4c0.436,1.047 0.775,2.891 0.727,4.064c-0.049,1.467 0.29,2.891 1.017,4.19c0.581,1.132 1.211,3.143 1.405,4.484c0.29,1.717 0.823,3.016 1.889,4.315c0.823,1.006 1.502,2.263 1.502,2.766c0.048,1.382 1.598,4.106 3.245,5.614c0.775,0.713 1.696,2.137 2.035,3.143c0.436,1.131 1.501,2.514 2.955,3.813c1.259,1.089 2.567,2.556 2.906,3.184c0.678,1.425 3.003,3.562 4.941,4.525c0.727,0.419 1.356,0.88 1.356,1.048c0,0.712 3.682,3.813 5.474,4.567c1.017,0.461 2.568,1.508 3.343,2.305c1.501,1.508 4.602,3.1 5.909,3.1c0.388,-0 1.744,0.754 2.955,1.676c1.405,1.048 3.246,1.928 4.99,2.347c1.501,0.377 3.294,1.005 3.972,1.382c1.889,1.09 3.536,1.634 6.104,1.928c1.307,0.167 3.342,0.67 4.553,1.173c1.453,0.587 3.197,0.922 5.328,0.922c1.744,0.042 3.681,0.293 4.312,0.586c0.823,0.377 2.277,0.503 4.844,0.336c2.034,-0.126 4.65,0 5.764,0.209c1.599,0.335 2.81,0.293 4.844,-0.084c1.551,-0.293 4.312,-0.586 6.153,-0.586c2.179,-0.042 3.923,-0.336 4.941,-0.796c0.871,-0.378 2.518,-0.713 3.681,-0.713c1.356,0 3.149,-0.419 4.989,-1.215c1.551,-0.67 3.779,-1.341 4.893,-1.508c1.114,-0.126 3.052,-0.88 4.311,-1.592c3.294,-1.886 3.149,-1.844 5.377,-2.347c1.114,-0.251 3.052,-1.257 4.36,-2.262c1.259,-0.964 3.391,-2.221 4.699,-2.808c1.501,-0.628 2.955,-1.718 3.875,-2.807c0.775,-1.006 1.744,-1.802 2.083,-1.802c0.969,0 4.796,-3.184 5.425,-4.525c0.339,-0.629 1.454,-1.676 2.519,-2.305c1.357,-0.796 2.374,-1.927 3.294,-3.645c0.775,-1.383 1.938,-2.891 2.616,-3.352c1.308,-0.88 3.73,-4.735 3.73,-5.908c0,-0.377 0.339,-0.964 0.824,-1.257c1.114,-0.838 3.051,-4.567 3.051,-5.95c0,-0.628 0.582,-1.885 1.26,-2.807c0.969,-1.215 1.405,-2.472 1.598,-4.525c0.194,-1.551 0.63,-3.268 1.018,-3.855c0.499,-0.756 1.303,-5.337 1.597,-8.65l-9.393,-10.762c-0.012,0.011 -3.447,4.251 -2.619,5.878c0.533,1.048 0.581,1.634 0.242,2.011c-1.017,1.048 -1.405,3.185 -1.017,5.154c0.387,1.634 0.29,2.095 -0.582,3.101c-0.775,0.922 -0.968,1.718 -0.92,3.855c-0,1.843 -0.194,2.765 -0.581,2.891c-1.017,0.335 -2.228,3.016 -2.228,4.818c0,1.257 -0.291,1.886 -0.969,2.305c-1.26,0.754 -2.907,3.519 -2.907,4.86c-0,0.671 -0.678,1.509 -1.937,2.43c-1.308,0.964 -2.132,2.053 -2.568,3.31c-0.484,1.425 -0.969,2.012 -2.277,2.598c-1.162,0.503 -2.034,1.383 -2.906,2.891c-0.678,1.174 -1.502,2.179 -1.889,2.179c-1.26,0.042 -3.779,1.844 -4.941,3.478c-0.678,0.922 -1.55,1.592 -2.083,1.592c-1.308,-0 -3.972,1.55 -5.183,2.975c-0.63,0.796 -1.405,1.215 -2.18,1.215c-1.55,0 -3.536,0.88 -4.99,2.263c-0.92,0.838 -1.647,1.089 -3.245,1.089c-1.502,0 -2.664,0.377 -4.408,1.383c-1.744,1.006 -2.713,1.341 -3.391,1.089c-1.211,-0.377 -4.118,0.126 -5.619,1.006c-0.775,0.419 -1.841,0.545 -3.633,0.377c-1.744,-0.126 -3.198,0.042 -4.699,0.503c-1.599,0.545 -2.374,0.628 -3.1,0.293c-1.115,-0.545 -5.135,-0.545 -6.588,-0.084c-0.63,0.21 -1.599,0.042 -2.81,-0.502c-1.55,-0.671 -2.374,-0.797 -4.989,-0.545c-2.083,0.167 -3.101,0.126 -3.101,-0.168c0,-0.754 -3.197,-1.676 -5.813,-1.676c-1.308,0 -2.422,-0.167 -2.422,-0.377c-0,-0.796 -2.906,-2.137 -5.134,-2.43c-1.793,-0.21 -2.713,-0.629 -4.118,-1.844c-1.308,-1.131 -2.47,-1.718 -3.827,-1.885c-1.453,-0.21 -2.131,-0.587 -2.809,-1.592c-0.824,-1.174 -3.633,-2.724 -6.007,-3.352c-0.484,-0.126 -0.872,-0.587 -0.872,-1.048c-0,-1.047 -2.761,-3.478 -4.747,-4.19c-1.163,-0.419 -1.55,-0.838 -1.55,-1.634c-0,-0.754 -0.727,-1.676 -2.326,-3.017c-1.404,-1.173 -2.518,-2.556 -2.858,-3.603c-0.339,-0.922 -1.453,-2.389 -2.518,-3.269c-1.066,-0.879 -1.793,-1.885 -1.647,-2.178c0.339,-0.796 -0.679,-3.143 -2.035,-4.777c-0.775,-0.922 -1.211,-1.969 -1.211,-3.017c-0,-1.592 -1.453,-4.609 -2.422,-5.154c-0.339,-0.167 -0.291,-0.544 0.048,-1.131c0.582,-0.964 0.09,-4.794 -0.975,-6.554Zm-5.225,10.074c1.356,1.005 3.73,2.849 5.28,4.148c2.277,1.885 2.81,2.598 2.81,3.645c0,0.754 -0.097,1.341 -0.194,1.341c-0.533,0 -6.152,-3.017 -7.557,-4.022c-1.841,-1.383 -3.391,-3.897 -3.391,-5.615c0,-0.67 0.145,-1.257 0.291,-1.257c0.145,-0 1.356,0.796 2.761,1.76Zm90.682,44.749c0.436,0.587 -3.633,4.651 -6.104,6.118c-1.453,0.88 -2.713,1.215 -4.844,1.34c-1.55,0.084 -2.858,0.042 -2.858,-0.125c-0,-0.168 0.581,-0.713 1.356,-1.173c0.727,-0.503 2.277,-1.718 3.488,-2.682c3.827,-3.059 8.09,-4.693 8.962,-3.478Zm56.046,-45.126c2.616,5.321 2.858,7.961 0.872,10.559c-0.63,0.838 -0.969,1.047 -1.163,0.628c-1.356,-3.939 -2.712,-8.925 -2.712,-10.14c-0,-1.508 0.823,-3.687 1.404,-3.687c0.146,0 0.872,1.215 1.599,2.64Zm-40.255,42.487c-2.954,5.069 -5.667,7.248 -9.058,7.248l-1.308,0l0.969,-0.963c0.533,-0.503 2.083,-2.347 3.439,-4.149c2.471,-3.184 4.311,-4.692 6.152,-5.028c1.453,-0.251 1.405,0.168 -0.194,2.892Zm33.861,-22.962c0,2.556 -1.308,5.363 -2.907,6.243l-1.017,0.545l0.145,-6.076c0.146,-5.782 0.194,-6.117 1.357,-7.164l1.211,-1.132l0.581,2.682c0.339,1.424 0.581,3.645 0.63,4.902Zm-124.591,0.671c1.696,1.592 2.083,2.933 0.727,2.555c-0.485,-0.125 -2.325,-0.628 -4.069,-1.089c-1.744,-0.461 -3.924,-1.257 -4.844,-1.802c-1.841,-1.089 -3.827,-3.394 -3.827,-4.525c0,-0.628 0.775,-0.461 5.232,1.341c3.245,1.299 5.764,2.598 6.781,3.52Zm5.28,9.804c2.955,0.461 6.055,1.132 6.879,1.467c1.308,0.628 2.47,1.801 2.47,2.556c0,0.167 -2.034,0.167 -4.456,-0c-5.329,-0.336 -8.865,-1.551 -10.221,-3.562c-0.485,-0.67 -0.727,-1.257 -0.485,-1.257c0.194,-0 2.81,0.377 5.813,0.796Zm101.581,2.011c-1.647,6.579 -2.858,8.716 -5.667,10.182c-1.986,1.048 -3.004,1.09 -2.519,0.084c0.194,-0.377 1.162,-2.472 2.083,-4.609c1.695,-3.981 4.02,-6.788 5.619,-6.788c0.63,-0 0.727,0.252 0.484,1.131Zm-89.47,3.73c1.259,0.125 2.664,0.67 3.584,1.34c1.405,0.964 1.453,1.132 0.63,1.383c-0.533,0.168 -3.052,0.335 -5.668,0.335c-5.28,0.042 -7.75,-0.67 -9.252,-2.681l-0.823,-1.048l4.747,0.21c2.616,0.125 5.667,0.335 6.782,0.461Zm101.823,-13.283c0.145,4.274 -0.678,6.872 -2.616,8.674c-1.695,1.55 -2.907,1.885 -2.471,0.67c0.146,-0.377 0.485,-2.514 0.776,-4.735c0.484,-4.274 1.017,-5.992 2.276,-7.165c1.502,-1.466 1.938,-0.922 2.035,2.556Zm14.484,-37.752c3.584,4.064 4.602,6.955 3.487,9.553c-0.532,1.132 -0.629,1.006 -3.439,-3.31c-2.809,-4.274 -3.827,-6.997 -3.197,-8.464c0.194,-0.335 0.388,-0.628 0.484,-0.628c0.097,-0 1.26,1.299 2.665,2.849Zm-5.329,23.716c1.308,4.315 1.356,6.536 0.097,8.589c-1.744,2.975 -2.18,2.556 -3.052,-2.807c-0.436,-2.724 -0.63,-5.489 -0.484,-6.16c0.29,-1.34 1.501,-3.142 2.034,-3.142c0.194,-0 0.824,1.592 1.405,3.52Zm5.377,-14.791c1.647,2.849 2.083,4.022 2.083,5.698c0,2.011 -0.678,3.897 -1.453,3.897c-0.194,0 -1.26,-2.011 -2.422,-4.525c-1.405,-3.059 -2.083,-5.112 -2.035,-6.411c0,-3.645 1.018,-3.268 3.827,1.341Zm-143.967,16.341c4.069,2.095 6.249,3.855 6.685,5.489l0.339,1.173l-1.841,-0.67c-7.363,-2.64 -10.85,-5.28 -10.85,-8.171c0,-0.838 0.096,-0.838 1.114,-0.293c0.581,0.377 2.664,1.466 4.553,2.472Zm-1.017,-11.062c0.727,1.467 0.92,3.059 0.291,3.059c-0.679,-0 -6.685,-4.483 -7.703,-5.74c-1.356,-1.676 -2.131,-3.813 -1.792,-5.028c0.291,-0.964 0.581,-0.797 4.408,2.681c2.229,2.011 4.408,4.274 4.796,5.028Zm111.124,36.747c-0,0.712 -2.761,6.62 -3.73,7.919c-1.26,1.76 -3.682,3.226 -5.329,3.226c-0.969,0 -0.872,-0.251 1.405,-4.106c2.567,-4.19 4.311,-6.201 5.958,-6.788c1.114,-0.419 1.696,-0.503 1.696,-0.251Zm-117.131,-50.155c3.924,4.567 4.747,5.95 4.747,7.961l0,1.551l-2.954,-2.473c-4.409,-3.771 -6.249,-6.955 -5.474,-9.595c0.145,-0.586 0.339,-1.089 0.387,-1.089c0.097,-0 1.55,1.634 3.294,3.645Zm74.406,61.091c0.387,0.293 -1.793,1.801 -5.183,3.603c-3.052,1.634 -7.8,2.179 -9.495,1.09c-0.872,-0.587 -0.678,-0.713 3.149,-2.389c2.276,-1.005 4.892,-2.053 5.813,-2.346c1.647,-0.545 5.086,-0.545 5.716,0.042Zm9.01,-0.294c0.339,0.461 -5.232,4.526 -7.654,5.615c-2.034,0.922 -5.764,1.215 -6.588,0.503c-0.436,-0.377 5.474,-4.064 9.204,-5.699c1.695,-0.796 4.602,-1.005 5.038,-0.419Zm-18.506,-0.586c0.728,0.461 0.292,0.754 -3.535,2.388c-3.488,1.467 -4.892,1.844 -6.927,1.844c-2.325,-0 -5.183,-0.796 -5.135,-1.425c0.049,-0.126 2.374,-0.964 5.232,-1.802c5.377,-1.592 8.96,-1.927 10.365,-1.005Zm-19.52,-5.28c0.92,0.378 1.743,0.922 1.84,1.216c0.339,0.838 -8.186,2.095 -11.19,1.634c-1.598,-0.252 -4.65,-2.053 -4.65,-2.724c-0,-0.209 1.599,-0.377 3.488,-0.419c1.937,-0.042 3.633,-0.168 3.73,-0.293c0.581,-0.461 5.328,-0.084 6.782,0.586Zm55.416,3.311c-1.55,2.136 -4.36,5.363 -5.328,6.075c-1.793,1.383 -6.927,2.682 -6.927,1.76c0,-0.545 7.556,-7.458 8.961,-8.213c0.775,-0.419 2.035,-0.754 2.81,-0.754l1.308,0l-0.824,1.132Zm-45.486,0.083c1.259,0.755 1.308,0.838 0.484,1.215c-0.532,0.21 -2.422,0.797 -4.214,1.341c-4.311,1.215 -8.477,1.048 -10.27,-0.419c-0.678,-0.544 -1.114,-1.047 -1.017,-1.173c0.097,-0.084 2.035,-0.503 4.263,-0.922c5.522,-1.005 8.962,-1.047 10.754,-0.042Zm75.181,-15.587c-0.388,3.981 -1.018,5.783 -2.568,7.584c-0.969,1.132 -4.02,2.975 -4.02,2.472c0,-0.628 2.954,-10.097 3.39,-10.726c0.436,-0.754 2.762,-2.556 3.294,-2.556c0.097,-0 0.097,1.467 -0.096,3.226Zm-114.564,-4.692c5.135,1.34 7.557,2.514 8.478,4.064l0.775,1.299l-2.955,-0.293c-4.844,-0.461 -7.848,-1.425 -9.834,-3.185c-1.937,-1.676 -2.567,-3.687 -0.969,-3.142c0.436,0.167 2.471,0.712 4.505,1.257Z" style="fill:none;stroke:#882920;stroke-width:1.32px;"/>
    <path d="M164.766,246.07c-0.449,-0.922 -10.011,-14.71 -10.337,-13.371c-0.368,1.76 -0.84,4.656 -0.555,5.997c0.245,0.963 0.367,2.933 0.245,4.315c-0.123,1.76 -0,3.101 0.489,4.4c0.367,1.047 0.653,2.891 0.612,4.064c-0.041,1.467 0.245,2.891 0.857,4.19c0.489,1.131 1.02,3.143 1.183,4.483c0.245,1.718 0.693,3.017 1.591,4.316c0.693,1.006 1.264,2.263 1.264,2.766c0.041,1.382 1.346,4.106 2.733,5.614c0.653,0.713 1.428,2.137 1.714,3.143c0.367,1.131 1.264,2.514 2.488,3.813c1.061,1.089 2.162,2.556 2.447,3.184c0.572,1.425 2.53,3.562 4.161,4.525c0.612,0.419 1.142,0.88 1.142,1.048c-0,0.712 3.101,3.813 4.61,4.567c0.857,0.461 2.162,1.508 2.815,2.305c1.264,1.508 3.875,3.1 4.976,3.1c0.326,-0 1.469,0.754 2.488,1.676c1.183,1.048 2.734,1.928 4.202,2.347c1.265,0.377 2.774,1.005 3.345,1.382c1.591,1.09 2.978,1.634 5.14,1.928c1.101,0.167 2.814,0.67 3.834,1.173c1.224,0.586 2.691,0.922 4.487,0.922c1.469,0.042 3.101,0.293 3.631,0.586c0.693,0.377 1.917,0.503 4.079,0.335c1.713,-0.125 3.916,-0 4.854,0.21c1.346,0.335 2.366,0.293 4.079,-0.084c1.306,-0.293 3.631,-0.586 5.181,-0.586c1.836,-0.042 3.304,-0.336 4.161,-0.797c0.734,-0.377 2.121,-0.712 3.1,-0.712c1.142,-0 2.652,-0.419 4.202,-1.215c1.305,-0.67 3.181,-1.341 4.12,-1.508c0.938,-0.126 2.569,-0.88 3.63,-1.593c2.774,-1.885 2.652,-1.843 4.528,-2.346c0.938,-0.251 2.57,-1.257 3.671,-2.263c1.061,-0.963 2.856,-2.22 3.957,-2.807c1.265,-0.628 2.488,-1.718 3.263,-2.807c0.653,-1.006 1.469,-1.802 1.754,-1.802c0.816,-0 4.039,-3.184 4.569,-4.525c0.286,-0.629 1.224,-1.676 2.121,-2.305c1.143,-0.796 1.999,-1.927 2.774,-3.645c0.653,-1.383 1.632,-2.891 2.203,-3.352c1.101,-0.88 3.141,-4.735 3.141,-5.908c0,-0.377 0.286,-0.964 0.693,-1.257c0.939,-0.838 2.57,-4.567 2.57,-5.95c0,-0.628 0.49,-1.885 1.061,-2.807c0.816,-1.215 1.183,-2.472 1.346,-4.525c0.163,-1.551 0.53,-3.269 0.857,-3.855c0.42,-0.756 0.83,-3.795 1.078,-7.108l-1.425,-0.652l-2.83,-5.353l-3.113,-5.077c-0.011,0.01 -3.178,3.029 -2.481,4.656c0.449,1.048 0.49,1.634 0.204,2.011c-0.856,1.048 -1.183,3.185 -0.856,5.154c0.326,1.634 0.245,2.095 -0.49,3.101c-0.652,0.921 -0.816,1.718 -0.775,3.854c-0,1.844 -0.163,2.766 -0.489,2.892c-0.857,0.335 -1.877,3.016 -1.877,4.818c-0,1.257 -0.244,1.886 -0.816,2.305c-1.06,0.754 -2.447,3.519 -2.447,4.86c-0,0.67 -0.571,1.508 -1.632,2.43c-1.101,0.964 -1.795,2.053 -2.162,3.31c-0.408,1.425 -0.816,2.012 -1.917,2.598c-0.979,0.503 -1.713,1.383 -2.447,2.891c-0.572,1.174 -1.265,2.179 -1.591,2.179c-1.061,0.042 -3.182,1.844 -4.161,3.478c-0.571,0.922 -1.305,1.592 -1.754,1.592c-1.102,-0 -3.345,1.55 -4.365,2.975c-0.53,0.796 -1.183,1.215 -1.836,1.215c-1.305,-0 -2.977,0.88 -4.201,2.263c-0.775,0.838 -1.387,1.089 -2.733,1.089c-1.265,0 -2.244,0.377 -3.712,1.383c-1.469,1.005 -2.285,1.341 -2.856,1.089c-1.02,-0.377 -3.467,0.126 -4.732,1.006c-0.652,0.419 -1.55,0.545 -3.059,0.377c-1.469,-0.126 -2.692,0.042 -3.957,0.503c-1.346,0.544 -1.999,0.628 -2.611,0.293c-0.938,-0.545 -4.323,-0.545 -5.547,-0.084c-0.531,0.21 -1.346,0.042 -2.366,-0.503c-1.305,-0.67 -1.999,-0.796 -4.202,-0.544c-1.754,0.167 -2.61,0.125 -2.61,-0.168c0,-0.754 -2.694,-1.676 -4.895,-1.676c-1.102,-0 -2.04,-0.167 -2.04,-0.377c-0,-0.796 -2.448,-2.137 -4.324,-2.43c-1.509,-0.21 -2.284,-0.629 -3.467,-1.844c-1.102,-1.131 -2.081,-1.718 -3.223,-1.885c-1.224,-0.21 -1.795,-0.587 -2.366,-1.593c-0.693,-1.173 -3.059,-2.723 -5.058,-3.352c-0.408,-0.125 -0.734,-0.586 -0.734,-1.047c0,-1.048 -2.325,-3.478 -3.998,-4.19c-0.979,-0.419 -1.305,-0.838 -1.305,-1.634c0,-0.754 -0.612,-1.676 -1.958,-3.017c-1.183,-1.173 -2.121,-2.556 -2.407,-3.603c-0.286,-0.922 -1.224,-2.389 -2.121,-3.269c-0.898,-0.88 -1.509,-1.885 -1.387,-2.178c0.285,-0.797 -0.571,-3.143 -1.713,-4.777c-0.653,-0.922 -1.02,-1.969 -1.02,-3.017c0,-1.592 -1.224,-4.609 -2.04,-5.154c-0.285,-0.167 -0.245,-0.544 0.041,-1.131c0.49,-0.964 0.204,-3.268 -0.693,-5.028Zm121.315,-7.123c3.019,4.064 3.875,6.955 2.937,9.553c-0.449,1.132 -0.53,1.006 -2.896,-3.31c-2.366,-4.274 -3.223,-6.997 -2.693,-8.464c0.164,-0.335 0.327,-0.628 0.408,-0.628c0.082,-0 1.061,1.299 2.244,2.849Zm-127.108,0.796c3.304,4.567 3.998,5.95 3.998,7.961l0,1.55l-2.489,-2.472c-3.712,-3.771 -5.262,-6.955 -4.609,-9.595c0.122,-0.586 0.285,-1.089 0.326,-1.089c0.082,-0 1.306,1.634 2.774,3.645Zm54.661,60.211c0.612,0.461 0.245,0.754 -2.977,2.388c-2.937,1.467 -4.12,1.844 -5.834,1.844c-1.958,0 -4.364,-0.796 -4.324,-1.425c0.041,-0.126 1.999,-0.964 4.406,-1.802c4.528,-1.592 7.546,-1.927 8.729,-1.005Zm22.966,-0.587c0.367,0.587 -3.059,4.651 -5.14,6.118c-1.223,0.879 -2.284,1.215 -4.079,1.34c-1.305,0.084 -2.406,0.042 -2.406,-0.125c-0,-0.168 0.489,-0.713 1.142,-1.174c0.612,-0.502 1.917,-1.717 2.937,-2.681c3.222,-3.059 6.812,-4.693 7.546,-3.478Zm-31.042,-1.299c1.06,0.754 1.101,0.838 0.407,1.215c-0.448,0.21 -2.039,0.796 -3.548,1.341c-3.631,1.215 -7.139,1.048 -8.648,-0.419c-0.571,-0.545 -0.939,-1.047 -0.857,-1.173c0.082,-0.084 1.713,-0.503 3.59,-0.922c4.65,-1.005 7.546,-1.047 9.056,-0.042Zm38.303,-0.084c-1.305,2.137 -3.671,5.364 -4.487,6.076c-1.509,1.383 -5.833,2.682 -5.833,1.76c-0,-0.545 6.363,-7.458 7.546,-8.213c0.653,-0.419 1.714,-0.754 2.366,-0.754l1.102,-0l-0.694,1.131Zm-46.666,-3.31c0.775,0.377 1.469,0.922 1.55,1.215c0.286,0.838 -6.894,2.095 -9.423,1.635c-1.346,-0.252 -3.916,-2.054 -3.916,-2.724c0,-0.21 1.346,-0.377 2.937,-0.419c1.632,-0.042 3.06,-0.168 3.141,-0.293c0.49,-0.461 4.487,-0.084 5.711,0.586Zm52.703,2.053c-2.488,5.07 -4.772,7.249 -7.628,7.249l-1.101,0l0.816,-0.964c0.449,-0.502 1.754,-2.346 2.896,-4.148c2.08,-3.184 3.631,-4.693 5.181,-5.028c1.223,-0.251 1.183,0.168 -0.164,2.891Zm7.71,-6.829c0,0.712 -2.325,6.62 -3.141,7.919c-1.06,1.76 -3.1,3.226 -4.487,3.226c-0.816,0 -0.734,-0.251 1.183,-4.106c2.162,-4.19 3.63,-6.201 5.017,-6.788c0.939,-0.419 1.428,-0.503 1.428,-0.251Zm-69.469,0.083c1.061,0.126 2.244,0.671 3.019,1.341c1.183,0.964 1.224,1.132 0.53,1.383c-0.448,0.168 -2.57,0.335 -4.772,0.335c-4.447,0.042 -6.527,-0.67 -7.792,-2.681l-0.693,-1.048l3.998,0.21c2.202,0.125 4.772,0.335 5.71,0.46Zm75.343,-3.729c-1.387,6.579 -2.407,8.716 -4.772,10.182c-1.673,1.048 -2.53,1.09 -2.122,0.084c0.163,-0.377 0.979,-2.472 1.754,-4.609c1.428,-3.981 3.386,-6.788 4.732,-6.788c0.531,0 0.612,0.251 0.408,1.131Zm-85.541,-2.011c2.489,0.461 5.099,1.131 5.793,1.467c1.101,0.628 2.08,1.801 2.08,2.556c0,0.167 -1.713,0.167 -3.753,-0c-4.487,-0.336 -7.465,-1.551 -8.607,-3.562c-0.408,-0.67 -0.612,-1.257 -0.408,-1.257c0.164,-0 2.366,0.377 4.895,0.796Zm90.926,-1.76c-0.327,3.981 -0.857,5.783 -2.162,7.584c-0.816,1.132 -3.386,2.975 -3.386,2.472c0,-0.628 2.488,-10.098 2.855,-10.726c0.368,-0.754 2.326,-2.556 2.774,-2.556c0.082,0 0.082,1.467 -0.081,3.226Zm-96.473,-4.693c4.324,1.341 6.363,2.515 7.138,4.065l0.653,1.299l-2.488,-0.294c-4.08,-0.46 -6.609,-1.424 -8.281,-3.184c-1.632,-1.676 -2.162,-3.687 -0.816,-3.143c0.367,0.168 2.08,0.713 3.794,1.257Zm101.49,-1.089c0.122,4.274 -0.571,6.872 -2.203,8.673c-1.427,1.551 -2.447,1.886 -2.08,0.671c0.122,-0.377 0.408,-2.514 0.653,-4.735c0.408,-4.274 0.856,-5.992 1.917,-7.165c1.264,-1.466 1.632,-0.922 1.713,2.556Zm-44.667,23.841c0.285,0.461 -4.406,4.526 -6.445,5.615c-1.713,0.922 -4.854,1.215 -5.548,0.503c-0.367,-0.377 4.61,-4.065 7.751,-5.699c1.427,-0.796 3.875,-1.005 4.242,-0.419Zm-7.587,0.294c0.326,0.293 -1.51,1.801 -4.365,3.603c-2.57,1.634 -6.568,2.179 -7.995,1.089c-0.735,-0.586 -0.572,-0.712 2.651,-2.388c1.917,-1.005 4.12,-2.053 4.895,-2.346c1.387,-0.545 4.283,-0.545 4.814,0.042Zm64.492,-52.962c1.387,2.849 1.754,4.022 1.754,5.698c-0,2.011 -0.571,3.897 -1.224,3.897c-0.163,-0 -1.061,-2.011 -2.04,-4.525c-1.183,-3.059 -1.754,-5.112 -1.713,-6.411c-0,-3.645 0.857,-3.268 3.223,1.341Zm-2.325,6.369c2.202,5.321 2.406,7.961 0.734,10.558c-0.53,0.838 -0.816,1.048 -0.979,0.629c-1.142,-3.939 -2.285,-8.925 -2.285,-10.14c0,-1.508 0.694,-3.687 1.183,-3.687c0.123,0 0.735,1.215 1.347,2.64Zm-2.203,8.421c1.101,4.316 1.142,6.537 0.081,8.59c-1.468,2.975 -1.835,2.556 -2.57,-2.807c-0.367,-2.724 -0.53,-5.489 -0.407,-6.16c0.244,-1.34 1.264,-3.142 1.713,-3.142c0.163,0 0.693,1.592 1.183,3.519Zm-108.099,11.774c1.428,1.593 1.754,2.933 0.612,2.556c-0.408,-0.125 -1.958,-0.628 -3.427,-1.089c-1.468,-0.461 -3.304,-1.257 -4.079,-1.802c-1.55,-1.089 -3.222,-3.394 -3.222,-4.525c-0,-0.628 0.652,-0.461 4.405,1.341c2.733,1.299 4.854,2.598 5.711,3.519Zm-8.607,-10.223c3.426,2.095 5.262,3.855 5.629,5.489l0.286,1.173l-1.55,-0.67c-6.201,-2.64 -9.138,-5.28 -9.138,-8.171c0,-0.838 0.082,-0.838 0.939,-0.293c0.489,0.377 2.243,1.466 3.834,2.472Zm113.524,9.553c-0,2.556 -1.101,5.363 -2.447,6.243l-0.857,0.545l0.122,-6.076c0.123,-5.782 0.163,-6.117 1.142,-7.165l1.02,-1.131l0.49,2.682c0.285,1.424 0.489,3.645 0.53,4.902Zm-114.381,-20.615c0.612,1.467 0.775,3.059 0.245,3.059c-0.571,-0 -5.629,-4.483 -6.486,-5.74c-1.142,-1.676 -1.795,-3.813 -1.509,-5.029c0.245,-0.963 0.489,-0.796 3.712,2.682c1.876,2.011 3.712,4.274 4.038,5.028Zm-3.793,1.467c1.142,1.005 3.141,2.849 4.446,4.148c1.917,1.885 2.366,2.598 2.366,3.645c-0,0.754 -0.082,1.341 -0.163,1.341c-0.449,0 -5.181,-3.017 -6.364,-4.023c-1.55,-1.382 -2.855,-3.896 -2.855,-5.614c-0,-0.671 0.122,-1.257 0.245,-1.257c0.122,0 1.142,0.796 2.325,1.76Z" style="fill:#a72920;"/>
    <path d="M164.766,246.07c-0.449,-0.922 -10.011,-14.71 -10.337,-13.371c-0.368,1.76 -0.84,4.656 -0.555,5.997c0.245,0.963 0.367,2.933 0.245,4.315c-0.123,1.76 -0,3.101 0.489,4.4c0.367,1.047 0.653,2.891 0.612,4.064c-0.041,1.467 0.245,2.891 0.857,4.19c0.489,1.131 1.02,3.143 1.183,4.483c0.245,1.718 0.693,3.017 1.591,4.316c0.693,1.006 1.264,2.263 1.264,2.766c0.041,1.382 1.346,4.106 2.733,5.614c0.653,0.713 1.428,2.137 1.714,3.143c0.367,1.131 1.264,2.514 2.488,3.813c1.061,1.089 2.162,2.556 2.447,3.184c0.572,1.425 2.53,3.562 4.161,4.525c0.612,0.419 1.142,0.88 1.142,1.048c-0,0.712 3.101,3.813 4.61,4.567c0.857,0.461 2.162,1.508 2.815,2.305c1.264,1.508 3.875,3.1 4.976,3.1c0.326,-0 1.469,0.754 2.488,1.676c1.183,1.048 2.734,1.928 4.202,2.347c1.265,0.377 2.774,1.005 3.345,1.382c1.591,1.09 2.978,1.634 5.14,1.928c1.101,0.167 2.814,0.67 3.834,1.173c1.224,0.586 2.691,0.922 4.487,0.922c1.469,0.042 3.101,0.293 3.631,0.586c0.693,0.377 1.917,0.503 4.079,0.335c1.713,-0.125 3.916,-0 4.854,0.21c1.346,0.335 2.366,0.293 4.079,-0.084c1.306,-0.293 3.631,-0.586 5.181,-0.586c1.836,-0.042 3.304,-0.336 4.161,-0.797c0.734,-0.377 2.121,-0.712 3.1,-0.712c1.142,-0 2.652,-0.419 4.202,-1.215c1.305,-0.67 3.181,-1.341 4.12,-1.508c0.938,-0.126 2.569,-0.88 3.63,-1.593c2.774,-1.885 2.652,-1.843 4.528,-2.346c0.938,-0.251 2.57,-1.257 3.671,-2.263c1.061,-0.963 2.856,-2.22 3.957,-2.807c1.265,-0.628 2.488,-1.718 3.263,-2.807c0.653,-1.006 1.469,-1.802 1.754,-1.802c0.816,-0 4.039,-3.184 4.569,-4.525c0.286,-0.629 1.224,-1.676 2.121,-2.305c1.143,-0.796 1.999,-1.927 2.774,-3.645c0.653,-1.383 1.632,-2.891 2.203,-3.352c1.101,-0.88 3.141,-4.735 3.141,-5.908c0,-0.377 0.286,-0.964 0.693,-1.257c0.939,-0.838 2.57,-4.567 2.57,-5.95c0,-0.628 0.49,-1.885 1.061,-2.807c0.816,-1.215 1.183,-2.472 1.346,-4.525c0.163,-1.551 0.53,-3.269 0.857,-3.855c0.42,-0.756 0.83,-3.795 1.078,-7.108l-1.425,-0.652l-2.83,-5.353l-3.113,-5.077c-0.011,0.01 -3.178,3.029 -2.481,4.656c0.449,1.048 0.49,1.634 0.204,2.011c-0.856,1.048 -1.183,3.185 -0.856,5.154c0.326,1.634 0.245,2.095 -0.49,3.101c-0.652,0.921 -0.816,1.718 -0.775,3.854c-0,1.844 -0.163,2.766 -0.489,2.892c-0.857,0.335 -1.877,3.016 -1.877,4.818c-0,1.257 -0.244,1.886 -0.816,2.305c-1.06,0.754 -2.447,3.519 -2.447,4.86c-0,0.67 -0.571,1.508 -1.632,2.43c-1.101,0.964 -1.795,2.053 -2.162,3.31c-0.408,1.425 -0.816,2.012 -1.917,2.598c-0.979,0.503 -1.713,1.383 -2.447,2.891c-0.572,1.174 -1.265,2.179 -1.591,2.179c-1.061,0.042 -3.182,1.844 -4.161,3.478c-0.571,0.922 -1.305,1.592 -1.754,1.592c-1.102,-0 -3.345,1.55 -4.365,2.975c-0.53,0.796 -1.183,1.215 -1.836,1.215c-1.305,-0 -2.977,0.88 -4.201,2.263c-0.775,0.838 -1.387,1.089 -2.733,1.089c-1.265,0 -2.244,0.377 -3.712,1.383c-1.469,1.005 -2.285,1.341 -2.856,1.089c-1.02,-0.377 -3.467,0.126 -4.732,1.006c-0.652,0.419 -1.55,0.545 -3.059,0.377c-1.469,-0.126 -2.692,0.042 -3.957,0.503c-1.346,0.544 -1.999,0.628 -2.611,0.293c-0.938,-0.545 -4.323,-0.545 -5.547,-0.084c-0.531,0.21 -1.346,0.042 -2.366,-0.503c-1.305,-0.67 -1.999,-0.796 -4.202,-0.544c-1.754,0.167 -2.61,0.125 -2.61,-0.168c0,-0.754 -2.694,-1.676 -4.895,-1.676c-1.102,-0 -2.04,-0.167 -2.04,-0.377c-0,-0.796 -2.448,-2.137 -4.324,-2.43c-1.509,-0.21 -2.284,-0.629 -3.467,-1.844c-1.102,-1.131 -2.081,-1.718 -3.223,-1.885c-1.224,-0.21 -1.795,-0.587 -2.366,-1.593c-0.693,-1.173 -3.059,-2.723 -5.058,-3.352c-0.408,-0.125 -0.734,-0.586 -0.734,-1.047c0,-1.048 -2.325,-3.478 -3.998,-4.19c-0.979,-0.419 -1.305,-0.838 -1.305,-1.634c0,-0.754 -0.612,-1.676 -1.958,-3.017c-1.183,-1.173 -2.121,-2.556 -2.407,-3.603c-0.286,-0.922 -1.224,-2.389 -2.121,-3.269c-0.898,-0.88 -1.509,-1.885 -1.387,-2.178c0.285,-0.797 -0.571,-3.143 -1.713,-4.777c-0.653,-0.922 -1.02,-1.969 -1.02,-3.017c0,-1.592 -1.224,-4.609 -2.04,-5.154c-0.285,-0.167 -0.245,-0.544 0.041,-1.131c0.49,-0.964 0.204,-3.268 -0.693,-5.028Zm121.315,-7.123c3.019,4.064 3.875,6.955 2.937,9.553c-0.449,1.132 -0.53,1.006 -2.896,-3.31c-2.366,-4.274 -3.223,-6.997 -2.693,-8.464c0.164,-0.335 0.327,-0.628 0.408,-0.628c0.082,-0 1.061,1.299 2.244,2.849Zm-127.108,0.796c3.304,4.567 3.998,5.95 3.998,7.961l0,1.55l-2.489,-2.472c-3.712,-3.771 -5.262,-6.955 -4.609,-9.595c0.122,-0.586 0.285,-1.089 0.326,-1.089c0.082,-0 1.306,1.634 2.774,3.645Zm54.661,60.211c0.612,0.461 0.245,0.754 -2.977,2.388c-2.937,1.467 -4.12,1.844 -5.834,1.844c-1.958,0 -4.364,-0.796 -4.324,-1.425c0.041,-0.126 1.999,-0.964 4.406,-1.802c4.528,-1.592 7.546,-1.927 8.729,-1.005Zm22.966,-0.587c0.367,0.587 -3.059,4.651 -5.14,6.118c-1.223,0.879 -2.284,1.215 -4.079,1.34c-1.305,0.084 -2.406,0.042 -2.406,-0.125c-0,-0.168 0.489,-0.713 1.142,-1.174c0.612,-0.502 1.917,-1.717 2.937,-2.681c3.222,-3.059 6.812,-4.693 7.546,-3.478Zm-31.042,-1.299c1.06,0.754 1.101,0.838 0.407,1.215c-0.448,0.21 -2.039,0.796 -3.548,1.341c-3.631,1.215 -7.139,1.048 -8.648,-0.419c-0.571,-0.545 -0.939,-1.047 -0.857,-1.173c0.082,-0.084 1.713,-0.503 3.59,-0.922c4.65,-1.005 7.546,-1.047 9.056,-0.042Zm38.303,-0.084c-1.305,2.137 -3.671,5.364 -4.487,6.076c-1.509,1.383 -5.833,2.682 -5.833,1.76c-0,-0.545 6.363,-7.458 7.546,-8.213c0.653,-0.419 1.714,-0.754 2.366,-0.754l1.102,-0l-0.694,1.131Zm-46.666,-3.31c0.775,0.377 1.469,0.922 1.55,1.215c0.286,0.838 -6.894,2.095 -9.423,1.635c-1.346,-0.252 -3.916,-2.054 -3.916,-2.724c0,-0.21 1.346,-0.377 2.937,-0.419c1.632,-0.042 3.06,-0.168 3.141,-0.293c0.49,-0.461 4.487,-0.084 5.711,0.586Zm52.703,2.053c-2.488,5.07 -4.772,7.249 -7.628,7.249l-1.101,0l0.816,-0.964c0.449,-0.502 1.754,-2.346 2.896,-4.148c2.08,-3.184 3.631,-4.693 5.181,-5.028c1.223,-0.251 1.183,0.168 -0.164,2.891Zm7.71,-6.829c0,0.712 -2.325,6.62 -3.141,7.919c-1.06,1.76 -3.1,3.226 -4.487,3.226c-0.816,0 -0.734,-0.251 1.183,-4.106c2.162,-4.19 3.63,-6.201 5.017,-6.788c0.939,-0.419 1.428,-0.503 1.428,-0.251Zm-69.469,0.083c1.061,0.126 2.244,0.671 3.019,1.341c1.183,0.964 1.224,1.132 0.53,1.383c-0.448,0.168 -2.57,0.335 -4.772,0.335c-4.447,0.042 -6.527,-0.67 -7.792,-2.681l-0.693,-1.048l3.998,0.21c2.202,0.125 4.772,0.335 5.71,0.46Zm75.343,-3.729c-1.387,6.579 -2.407,8.716 -4.772,10.182c-1.673,1.048 -2.53,1.09 -2.122,0.084c0.163,-0.377 0.979,-2.472 1.754,-4.609c1.428,-3.981 3.386,-6.788 4.732,-6.788c0.531,0 0.612,0.251 0.408,1.131Zm-85.541,-2.011c2.489,0.461 5.099,1.131 5.793,1.467c1.101,0.628 2.08,1.801 2.08,2.556c0,0.167 -1.713,0.167 -3.753,-0c-4.487,-0.336 -7.465,-1.551 -8.607,-3.562c-0.408,-0.67 -0.612,-1.257 -0.408,-1.257c0.164,-0 2.366,0.377 4.895,0.796Zm90.926,-1.76c-0.327,3.981 -0.857,5.783 -2.162,7.584c-0.816,1.132 -3.386,2.975 -3.386,2.472c0,-0.628 2.488,-10.098 2.855,-10.726c0.368,-0.754 2.326,-2.556 2.774,-2.556c0.082,0 0.082,1.467 -0.081,3.226Zm-96.473,-4.693c4.324,1.341 6.363,2.515 7.138,4.065l0.653,1.299l-2.488,-0.294c-4.08,-0.46 -6.609,-1.424 -8.281,-3.184c-1.632,-1.676 -2.162,-3.687 -0.816,-3.143c0.367,0.168 2.08,0.713 3.794,1.257Zm101.49,-1.089c0.122,4.274 -0.571,6.872 -2.203,8.673c-1.427,1.551 -2.447,1.886 -2.08,0.671c0.122,-0.377 0.408,-2.514 0.653,-4.735c0.408,-4.274 0.856,-5.992 1.917,-7.165c1.264,-1.466 1.632,-0.922 1.713,2.556Zm-44.667,23.841c0.285,0.461 -4.406,4.526 -6.445,5.615c-1.713,0.922 -4.854,1.215 -5.548,0.503c-0.367,-0.377 4.61,-4.065 7.751,-5.699c1.427,-0.796 3.875,-1.005 4.242,-0.419Zm-7.587,0.294c0.326,0.293 -1.51,1.801 -4.365,3.603c-2.57,1.634 -6.568,2.179 -7.995,1.089c-0.735,-0.586 -0.572,-0.712 2.651,-2.388c1.917,-1.005 4.12,-2.053 4.895,-2.346c1.387,-0.545 4.283,-0.545 4.814,0.042Zm64.492,-52.962c1.387,2.849 1.754,4.022 1.754,5.698c-0,2.011 -0.571,3.897 -1.224,3.897c-0.163,-0 -1.061,-2.011 -2.04,-4.525c-1.183,-3.059 -1.754,-5.112 -1.713,-6.411c-0,-3.645 0.857,-3.268 3.223,1.341Zm-2.325,6.369c2.202,5.321 2.406,7.961 0.734,10.558c-0.53,0.838 -0.816,1.048 -0.979,0.629c-1.142,-3.939 -2.285,-8.925 -2.285,-10.14c0,-1.508 0.694,-3.687 1.183,-3.687c0.123,0 0.735,1.215 1.347,2.64Zm-2.203,8.421c1.101,4.316 1.142,6.537 0.081,8.59c-1.468,2.975 -1.835,2.556 -2.57,-2.807c-0.367,-2.724 -0.53,-5.489 -0.407,-6.16c0.244,-1.34 1.264,-3.142 1.713,-3.142c0.163,0 0.693,1.592 1.183,3.519Zm-108.099,11.774c1.428,1.593 1.754,2.933 0.612,2.556c-0.408,-0.125 -1.958,-0.628 -3.427,-1.089c-1.468,-0.461 -3.304,-1.257 -4.079,-1.802c-1.55,-1.089 -3.222,-3.394 -3.222,-4.525c-0,-0.628 0.652,-0.461 4.405,1.341c2.733,1.299 4.854,2.598 5.711,3.519Zm-8.607,-10.223c3.426,2.095 5.262,3.855 5.629,5.489l0.286,1.173l-1.55,-0.67c-6.201,-2.64 -9.138,-5.28 -9.138,-8.171c0,-0.838 0.082,-0.838 0.939,-0.293c0.489,0.377 2.243,1.466 3.834,2.472Zm113.524,9.553c-0,2.556 -1.101,5.363 -2.447,6.243l-0.857,0.545l0.122,-6.076c0.123,-5.782 0.163,-6.117 1.142,-7.165l1.02,-1.131l0.49,2.682c0.285,1.424 0.489,3.645 0.53,4.902Zm-114.381,-20.615c0.612,1.467 0.775,3.059 0.245,3.059c-0.571,-0 -5.629,-4.483 -6.486,-5.74c-1.142,-1.676 -1.795,-3.813 -1.509,-5.029c0.245,-0.963 0.489,-0.796 3.712,2.682c1.876,2.011 3.712,4.274 4.038,5.028Zm-3.793,1.467c1.142,1.005 3.141,2.849 4.446,4.148c1.917,1.885 2.366,2.598 2.366,3.645c-0,0.754 -0.082,1.341 -0.163,1.341c-0.449,0 -5.181,-3.017 -6.364,-4.023c-1.55,-1.382 -2.855,-3.896 -2.855,-5.614c-0,-0.671 0.122,-1.257 0.245,-1.257c0.122,0 1.142,0.796 2.325,1.76Z" style="fill:none;stroke:#882920;stroke-width:1.32px;"/>
    <path d="M186.369,29.84c11.116,-12.73 16.151,-18.318 32.545,-18.541c5.828,-0.079 7.099,4.802 6.707,7.34c-0.497,3.215 -1.838,6.052 -2.654,6.961l-8.8,0.088l2.843,-5.248c1.736,-3.286 -2.949,-3.877 -7.967,-1.229c-7.767,4.099 -6.403,4.241 -19.723,13.358l-2.951,-2.729Z" style="fill:#a72920;"/>
    <path d="M186.369,29.84c11.116,-12.73 16.151,-18.318 32.545,-18.541c5.828,-0.079 7.099,4.802 6.707,7.34c-0.497,3.215 -1.838,6.052 -2.654,6.961l-8.8,0.088l2.843,-5.248c1.736,-3.286 -2.949,-3.877 -7.967,-1.229c-7.767,4.099 -6.403,4.241 -19.723,13.358l-2.951,-2.729Z" style="fill:none;stroke:#882920;stroke-width:2.65px;"/>
    <path d="M156.498,52.866l27.646,-23.097l5.949,5.424l-30.351,20.813l-3.244,-3.14Z" style="fill:#a72920;"/>
    <path d="M156.498,52.866l27.646,-23.097l5.949,5.424l-30.351,20.813l-3.244,-3.14Zm8.631,-3.762l20.713,-14.205l-1.774,-1.618l-18.939,15.823Z" style="fill:#882920;"/>
    <path d="M187.796,26.894c-3.398,-3.057 -7.398,-0.34 -4.068,3.285l5.89,5.818c3.006,2.647 6.199,-0.725 4.022,-3.2l-5.844,-5.903Z" style="fill:#a72920;"/>
    <path d="M187.796,26.894l5.844,5.903c2.177,2.475 -1.016,5.847 -4.022,3.2l-5.89,-5.818c-3.33,-3.625 0.67,-6.342 4.068,-3.285Z" style="fill:#882920;"/>
    <path d="M158.116,50.599c2.092,0 3.79,1.698 3.79,3.789c0,2.091 -1.698,3.789 -3.79,3.789c-2.091,0 -3.789,-1.698 -3.789,-3.789c0,-2.091 1.698,-3.789 3.789,-3.789Z" style="fill:#a72920;"/>
    <path d="M158.116,50.599c2.092,0 3.79,1.698 3.79,3.789c0,2.091 -1.698,3.789 -3.79,3.789c-2.091,0 -3.789,-1.698 -3.789,-3.789c0,-2.091 1.698,-3.789 3.789,-3.789Zm-0,2.646c-0.63,-0 -1.142,0.512 -1.142,1.143c-0,0.631 0.512,1.143 1.142,1.143c0.631,0 1.143,-0.512 1.143,-1.143c-0,-0.631 -0.512,-1.143 -1.143,-1.143Z" style="fill:#882920;"/>
    <path d="M222.054,30.247l-9.023,-0.16c-1.511,2.096 -1.632,4.736 -0.975,7.504c0.795,3.339 7.517,5.135 11.34,5.263c9.169,0.306 11.321,-21.899 29.243,-23.036c9.393,-0.595 11.328,6.784 14.382,17.145l8.727,-2.809c-3.367,-23.815 -33.043,-37.395 -52.721,-0.677c-0.691,1.288 -4.198,1.258 -0.973,-3.23Z" style="fill:#a72920;"/>
    <path d="M222.054,30.247c-3.225,4.488 0.282,4.518 0.973,3.23c19.678,-36.718 49.354,-23.138 52.721,0.677l-8.727,2.809c-3.054,-10.361 -4.989,-17.74 -14.382,-17.145c-17.922,1.137 -20.074,23.342 -29.243,23.036c-3.823,-0.128 -10.545,-1.924 -11.34,-5.263c-0.657,-2.768 -0.536,-5.408 0.975,-7.504l9.023,0.16Zm-3.918,2.577l-3.541,-0.063c-0.439,1.266 -0.319,2.72 0.037,4.218c0.048,0.203 0.21,0.361 0.381,0.526c0.389,0.376 0.901,0.694 1.471,0.983c2.136,1.079 5.02,1.655 7.001,1.721c1.126,0.038 2.03,-0.582 2.924,-1.437c1.334,-1.276 2.561,-3.072 3.883,-5.042c4.716,-7.028 10.441,-15.808 22.18,-16.553c6.959,-0.441 10.63,2.618 13.247,7.935c1.165,2.369 2.099,5.256 3.07,8.502l3.945,-1.27c-2.587,-11.683 -12.21,-20.188 -23.271,-18.726c-8.138,1.075 -16.781,7.445 -24.104,21.109l-0.53,0.751l-0.614,0.551l-1.352,0.661l-0.9,0.158l-0.999,-0.059l-0.722,-0.214l-0.727,-0.407c-0.66,-0.481 -1.53,-1.572 -1.379,-3.344Z" style="fill:#882920;"/>
    <path d="M265.069,41.36l4.595,18.671l19.48,5.857l-9.06,-28.979l-15.015,4.451Z" style="fill:#a72920;"/>
    <path d="M265.069,41.36l15.015,-4.451l9.06,28.979l-19.48,-5.857l-4.595,-18.671Zm3.173,1.819l3.631,14.753l13.257,3.985l-6.794,-21.73l-10.094,2.992Z" style="fill:#882920;"/>
    <path d="M266.058,34.987c-6.492,2.322 -5.465,9.113 1.761,7.243l11.966,-3.691c5.664,-2.091 3.193,-8.285 -1.676,-7.13l-12.051,3.578Z" style="fill:#a72920;"/>
    <path d="M266.058,34.987l12.051,-3.578c4.869,-1.155 7.34,5.039 1.676,7.13l-11.966,3.691c-7.226,1.87 -8.253,-4.921 -1.761,-7.243Zm0.828,2.515l-0.007,0.003c-0.971,0.356 -1.698,0.833 -2.145,1.395c-0.131,0.163 -0.233,0.329 -0.295,0.498c-0.034,0.092 -0.108,0.178 -0.058,0.249c0.129,0.186 0.409,0.202 0.736,0.238c0.556,0.06 1.216,-0.009 1.984,-0.203l11.837,-3.652c0.882,-0.334 1.449,-0.73 1.46,-1.292c0.014,-0.639 -0.744,-0.953 -1.619,-0.768l-11.893,3.532Z" style="fill:#882920;"/>
    <path d="M220.645,47.835c95.649,-0 173.305,77.656 173.305,173.305c-0,95.65 -77.656,173.305 -173.305,173.305c-95.649,0 -173.305,-77.655 -173.305,-173.305c0,-95.649 77.656,-173.305 173.305,-173.305Zm0,48.967c68.624,0 124.338,55.714 124.338,124.338c0,68.624 -55.714,124.338 -124.338,124.338c-68.624,-0 -124.338,-55.714 -124.338,-124.338c0,-68.624 55.714,-124.338 124.338,-124.338Z" style="fill:#a72920;"/>
    <path d="M220.645,37.25c101.492,0 183.89,82.398 183.89,183.89c0,101.492 -82.398,183.89 -183.89,183.89c-101.492,0 -183.89,-82.398 -183.89,-183.89c0,-101.492 82.398,-183.89 183.89,-183.89Zm0,10.585c-95.649,-0 -173.305,77.656 -173.305,173.305c0,95.65 77.656,173.305 173.305,173.305c95.649,0 173.305,-77.655 173.305,-173.305c-0,-95.649 -77.656,-173.305 -173.305,-173.305Zm0,48.967c68.624,0 124.338,55.714 124.338,124.338c0,68.624 -55.714,124.338 -124.338,124.338c-68.624,-0 -124.338,-55.714 -124.338,-124.338c0,-68.624 55.714,-124.338 124.338,-124.338Zm0,10.585c-62.782,-0 -113.753,50.971 -113.753,113.753c-0,62.782 50.971,113.753 113.753,113.753c62.782,0 113.753,-50.971 113.753,-113.753c-0,-62.782 -50.971,-113.753 -113.753,-113.753Z" style="fill:#882920;"/>
    <path d="M429.901,197.035c0,-7.54 -6.121,-13.662 -13.662,-13.662l-391.722,-0c-7.54,-0 -13.662,6.122 -13.662,13.662l-0,48.576c-0,7.54 6.122,13.662 13.662,13.662l391.722,-0c7.541,-0 13.662,-6.122 13.662,-13.662l0,-48.576Z" style="fill:#a72920;"/>
    <path d="M440.757,197.035l-0,48.576c-0,13.531 -10.986,24.517 -24.518,24.517l-391.722,-0c-13.531,-0 -24.517,-10.986 -24.517,-24.517l-0,-48.576c-0,-13.531 10.986,-24.517 24.517,-24.517l391.722,0c13.532,0 24.518,10.986 24.518,24.517Zm-10.856,0c0,-7.54 -6.121,-13.662 -13.662,-13.662l-391.722,-0c-7.54,-0 -13.662,6.122 -13.662,13.662l-0,48.576c-0,7.54 6.122,13.662 13.662,13.662l391.722,-0c7.541,-0 13.662,-6.122 13.662,-13.662l0,-48.576Z" style="fill:#882920;"/>
    <path d="M219.257,111.086c3.993,0.037 8.352,0.545 11.529,1.568c7.827,2.521 11.53,5.656 16.252,12.348c3.495,4.954 7.893,12.72 8.235,25.338c-0.003,-0 0.102,0.423 0.099,0.423c0.957,3.027 1.21,5.655 1.597,7.331c0.562,2.441 3.167,8.941 5.611,13.713c0.728,0.407 2.719,2.653 0.268,3.444c-2.793,0.902 -9.737,-0.235 -14.803,-1.698c-6.994,-2.019 -18.737,-4.594 -25.547,-5.121c-10.297,-0.796 -18.879,0.572 -26.278,3.034c-4.347,1.446 -13.422,2.231 -18.016,0.438c-2.386,-0.931 0.44,-2.546 0.806,-3.221c1.103,-1.074 3.559,-4.174 3.403,-6.869c-2.59,-1.392 -0.538,-1.813 1.138,-1.906c0.002,-0.698 1.216,-15.986 12.169,-27.039c0.347,-0.442 1.015,-1.279 1.833,-1.69c-0.299,-0.488 -0.86,-0.123 -1.297,-2.02c-0.187,-0.81 -0.061,-3.905 0.551,-6.092c1.003,-3.58 2.664,-4.831 3.606,-5.802c2.852,-2.94 6.598,-5.311 12.133,-5.839c1.987,-0.19 4.315,-0.362 6.711,-0.339l-0,-0.001Z" style="fill-rule:nonzero;"/>
    <path d="M222.172,152.218c2.97,-0 5.382,2.412 5.382,5.383c-0,2.971 -2.412,5.383 -5.382,5.383c-2.971,0 -5.383,-2.412 -5.383,-5.383c0,-2.971 2.412,-5.383 5.383,-5.383Z" style="fill:#a72920;"/>
    <path d="M218.111,153.505c-2.91,1.1 -9.56,3.373 -20.066,5.633c-4.094,0.881 -13.287,0.917 -14.487,2.307c-1.76,2.04 0.001,4.197 5.535,4.02c17.704,-0.567 21.931,-2.141 29.567,-3.288c-1.372,-1.055 -2.257,-2.713 -2.257,-4.576c-0,-1.601 0.654,-3.05 1.708,-4.096Z" style="fill:#a72920;"/>
    <path d="M216.788,125.183c6.666,-0.043 15.292,1.183 20.421,4.032c11.039,6.216 15.878,13.58 18.367,26.552c-3.145,-6.936 -6.339,-13.152 -9.127,-15.577c-0.475,-0.58 -0.956,-0.447 -2.539,-0.522c-1.109,-0.053 -1.84,-1.609 -2.109,-3.118c-0.104,-0.58 -1.421,-2.425 -3.005,-3.322c-2.383,-1.371 -3.549,-2.743 -8.615,-2.856c-1.584,0.158 -3.483,0.266 -4.909,1.11c-1.6,0.949 -2.77,0.208 -3.378,-0.364c-3.186,-3.002 -7.209,-4.343 -12.245,-2.641c-2.112,1.003 -6.182,3.479 -7.765,5.591c-2.271,-0.317 -4.169,-0.311 -6.123,-0.047c4.584,-5.562 9.488,-7.577 16.79,-8.605c1.263,-0.14 2.699,-0.223 4.238,-0.233l-0.001,-0Z" style="fill:#a72920;fill-rule:nonzero;"/>
    <path d="M253.573,162.263c0.725,0.015 3.758,-0.167 3.154,-0.369c-0.977,-0.327 -8.117,-0.423 -11.179,-0.687c-3.062,-0.264 -11.488,-1.48 -14.835,-1.847c-2.587,-0.284 -3.485,-0.383 -2.587,-0.119c0.897,0.264 5.092,0.736 9.239,1.491c2.752,0.502 11.517,1.434 16.208,1.531Z" style="fill:#a72920;fill-rule:nonzero;"/>
    <path d="M253.034,143.328c-0.082,-2.683 -4.118,-14.467 -8.109,-19.469c-3.253,-4.076 -7.233,-8.286 -14.329,-9.933c-3.219,-0.747 -9.461,-2.082 -13.37,-1.689c-8.803,-0.273 -21.854,5.616 -19.065,16.939c0.051,0.42 0.648,0.973 0.446,1.097c-0.295,0.18 -0.48,0.343 -0.652,0.446c-0.12,0.068 -0.334,-0.017 -0.445,-0.309c-3.781,-13.144 10.648,-18.946 18.344,-18.824c12.792,-0.226 21.644,1.565 30.011,12.456c4.185,5.448 5.641,10.012 7.312,16.432c0.16,0.615 0.314,1.238 0.464,1.869c0.205,0.857 0.72,6.378 0.582,5.589c-0.105,-0.608 -2.411,-4.936 -3.588,-7.139l-0.005,0.021c-0.004,-0.017 -0.008,-0.036 -0.014,-0.055c-0.222,-0.416 -0.402,-0.754 -0.518,-0.972c-0.278,-0.417 -0.534,-0.772 -0.744,-1.045c-0.02,-0.026 -0.037,-0.05 -0.053,-0.073c-0.713,-0.927 -1.693,-2.064 -2.898,-3.284c-6.129,-6.206 -11.33,-8.432 -20.442,-10.203c-0.468,-0.091 -0.947,-0.181 -1.436,-0.27c-12.84,-1.181 -19.506,0.853 -24.565,4.218c-0.634,0.448 -0.778,0.278 -1.151,-0.077c-0.374,-0.355 -0.511,-0.91 -0.735,-2.217c0.259,-5.288 2.417,-7.768 6.086,-10.566c0.31,-0.17 1.1,-0.606 1.802,-0.929c1.094,-0.599 2.711,-1.336 4.171,-1.687c2.637,-0.633 4.756,-0.986 8.22,-0.986c3.463,0 8.029,0.768 12.109,1.728c4.08,0.96 8.303,3.923 9.258,4.663c2.462,1.909 3.999,4.226 6.85,7.973c2.053,2.697 6.339,16.18 6.464,16.296Z" style="fill:#a72920;"/>
    <path d="M127.411,325.898l-8.839,-8.932l-5.121,5.067l7.181,7.256l-3.548,3.511l-7.18,-7.256l-7.933,7.851l-3.863,-3.904l20.137,-19.927l12.895,13.03l-3.729,3.304Z" style="fill:#fff;fill-rule:nonzero;"/>
    <path d="M130.952,343.145l-3.977,5.713l11.187,7.79l-2.852,4.095l-15.694,-10.926l16.187,-23.25l15.045,10.474l-3.068,3.926l-10.312,-7.18l-3.673,5.276l8.377,5.832l-2.842,4.083l-8.378,-5.833Z" style="fill:#fff;fill-rule:nonzero;"/>
    <path d="M156.253,366.909c1.713,0.759 3.093,0.866 4.14,0.323c1.047,-0.543 1.972,-1.72 2.774,-3.532l7.527,-16.999l4.977,2.204l-8.135,18.372c-1.077,2.432 -2.701,4.112 -4.873,5.041c-2.171,0.928 -4.975,0.632 -8.411,-0.89c-3.437,-1.521 -5.541,-3.398 -6.313,-5.63c-0.772,-2.232 -0.62,-4.564 0.457,-6.996l8.135,-18.372l4.977,2.204l-7.527,16.998c-0.802,1.812 -1.052,3.288 -0.751,4.429c0.302,1.14 1.31,2.09 3.023,2.848Z" style="fill:#fff;fill-rule:nonzero;"/>
    <path d="M183.458,367.978l-1.522,6.793l13.302,2.981l-1.091,4.87l-18.661,-4.182l6.195,-27.644l17.888,4.008l-1.355,4.795l-12.262,-2.748l-1.406,6.272l9.961,2.233l-1.088,4.854l-9.961,-2.232Z" style="fill:#fff;fill-rule:nonzero;"/>
    <path d="M219.835,364.792c0.014,-0.506 -0.063,-1.015 -0.232,-1.526c-0.168,-0.51 -0.504,-0.943 -1.005,-1.296c-0.502,-0.354 -1.243,-0.544 -2.222,-0.572l-4.893,-0.138l-0.185,6.588l4.893,0.137c0.979,0.028 1.729,-0.121 2.25,-0.445c0.521,-0.325 0.88,-0.74 1.077,-1.246c0.198,-0.507 0.303,-1.007 0.317,-1.502Zm5.317,-0.012c-0.053,1.873 -0.553,3.472 -1.501,4.797c-0.947,1.325 -2.232,2.277 -3.853,2.856l6.796,12.278l-6.28,-0.177l-5.75,-11.585l-3.406,-0.096l-0.322,11.414l-5.505,-0.155l0.797,-28.318l10.397,0.292c1.766,0.05 3.303,0.446 4.612,1.188c1.31,0.743 2.318,1.76 3.025,3.051c0.707,1.291 1.037,2.776 0.99,4.455Z" style="fill:#fff;fill-rule:nonzero;"/>
    <path d="M259.592,351.129l5.597,-1.087l-4.625,30.992l-11.872,-16.221l-4.951,19.489l-15.907,-27.004l5.597,-1.087l8.313,14.082l4.54,-17.879l10.887,14.882l2.421,-16.167Z" style="fill:#fff;fill-rule:nonzero;"/>
    <path d="M280.568,360.242l2.932,6.313l12.364,-5.741l2.102,4.526l-17.344,8.055l-11.933,-25.694l16.626,-7.722l1.846,4.628l-11.396,5.293l2.707,5.83l9.258,-4.3l2.096,4.512l-9.258,4.3Z" style="fill:#fff;fill-rule:nonzero;"/>
    <path d="M304.896,326.754l4.432,-3.241l16.723,22.868l-4.433,3.241l-6.521,-8.918l-9.426,6.893l6.521,8.918l-4.433,3.242l-16.722,-22.868l4.432,-3.242l7.265,9.935l9.427,-6.893l-7.265,-9.935Z" style="fill:#fff;fill-rule:nonzero;"/>
    <path d="M329.511,314.811c-0.376,-0.339 -0.813,-0.61 -1.311,-0.813c-0.499,-0.203 -1.045,-0.228 -1.64,-0.076c-0.594,0.153 -1.22,0.593 -1.876,1.321l-3.278,3.633l4.893,4.415l3.278,-3.634c0.656,-0.728 1.03,-1.395 1.121,-2.002c0.09,-0.607 0.007,-1.15 -0.25,-1.628c-0.257,-0.479 -0.569,-0.884 -0.937,-1.216Zm3.439,-4.053c1.392,1.255 2.284,2.673 2.678,4.253c0.394,1.581 0.285,3.176 -0.326,4.786l13.753,2.792l-4.209,4.665l-12.547,-3.14l-2.283,2.531l8.479,7.649l-3.69,4.089l-21.034,-18.977l6.968,-7.723c1.183,-1.311 2.481,-2.224 3.896,-2.739c1.414,-0.515 2.842,-0.623 4.283,-0.323c1.441,0.299 2.785,1.012 4.032,2.137Z" style="fill:#fff;fill-rule:nonzero;"/>
    <path d="M101.814,117.431l-7.732,9.906l5.679,4.432l6.281,-8.047l3.934,3.071l-6.281,8.047l8.798,6.867l-3.379,4.329l-22.332,-17.431l11.28,-14.451l3.752,3.277Z" style="fill:#fff;fill-rule:nonzero;"/>
    <path d="M123.106,102.153c-0.329,-0.384 -0.728,-0.709 -1.196,-0.975c-0.468,-0.265 -1.007,-0.36 -1.616,-0.285c-0.609,0.075 -1.286,0.431 -2.03,1.068l-3.718,3.182l4.285,5.007l3.718,-3.183c0.744,-0.637 1.201,-1.251 1.369,-1.841c0.168,-0.591 0.155,-1.139 -0.039,-1.647c-0.193,-0.508 -0.451,-0.95 -0.773,-1.326Zm3.932,-3.578c1.218,1.423 1.921,2.944 2.108,4.562c0.188,1.619 -0.125,3.187 -0.937,4.704l13.28,4.536l-4.773,4.086l-12.04,-4.726l-2.589,2.216l7.426,8.675l-4.184,3.582l-18.423,-21.522l7.902,-6.764c1.341,-1.148 2.747,-1.887 4.216,-2.216c1.468,-0.329 2.898,-0.253 4.289,0.23c1.391,0.482 2.632,1.361 3.725,2.637Z" style="fill:#fff;fill-rule:nonzero;"/>
    <path d="M146.047,95.504l3.389,6.08l11.907,-6.636l2.43,4.359l-16.704,9.31l-13.793,-24.745l16.013,-8.925l2.182,4.479l-10.976,6.117l3.13,5.615l8.916,-4.969l2.422,4.345l-8.916,4.97Z" style="fill:#fff;fill-rule:nonzero;"/>
    <path d="M160.54,70.199l5.15,-1.951l10.035,26.493l-5.151,1.951l-10.034,-26.493Z" style="fill:#fff;fill-rule:nonzero;"/>
    <path d="M209.792,58.544l5.639,-0.838l-5.996,30.756l-11.139,-16.731l-5.811,19.25l-14.694,-27.683l5.64,-0.838l7.68,14.437l5.329,-17.659l10.215,15.35l3.137,-16.044Z" style="fill:#fff;fill-rule:nonzero;"/>
    <path d="M228.427,58.894l5.496,0.353l-1.817,28.272l-5.496,-0.353l1.817,-28.272Z" style="fill:#fff;fill-rule:nonzero;"/>
    <path d="M257.585,86.767l-1.022,4.885l-16.647,-3.486l5.805,-27.728l5.375,1.125l-4.782,22.844l11.271,2.36Z" style="fill:#fff;fill-rule:nonzero;"/>
    <path d="M281.024,95.545l-1.885,4.621l-15.748,-6.425l10.703,-26.231l5.085,2.075l-8.818,21.61l10.663,4.35Z" style="fill:#fff;fill-rule:nonzero;"/>
    <path d="M299.553,79.141l4.767,2.759l-14.193,24.518l-4.767,-2.759l14.193,-24.518Z" style="fill:#fff;fill-rule:nonzero;"/>
    <path d="M319.683,112.88l3.997,3.302l-7.52,9.103c-2.7,-0.806 -5.382,-2.31 -8.047,-4.511c-1.42,-1.173 -2.64,-2.541 -3.661,-4.103c-1.02,-1.563 -1.75,-3.245 -2.19,-5.046c-0.529,-2.267 -0.514,-4.517 0.046,-6.75c0.56,-2.233 1.57,-4.234 3.031,-6.002c1.317,-1.594 2.849,-2.849 4.598,-3.765c1.748,-0.916 3.576,-1.476 5.484,-1.681c1.908,-0.205 3.793,-0.044 5.656,0.482c1.863,0.527 3.575,1.434 5.135,2.724c2.79,2.304 4.492,5.4 5.107,9.288l-5.162,0.492c-0.395,-2.464 -1.46,-4.412 -3.195,-5.845c-1.329,-1.098 -2.823,-1.753 -4.484,-1.966c-1.661,-0.212 -3.294,-0.011 -4.899,0.605c-1.605,0.615 -2.99,1.629 -4.156,3.04c-0.939,1.137 -1.601,2.378 -1.986,3.722c-0.384,1.345 -0.482,2.681 -0.295,4.01c0.266,1.588 0.828,2.971 1.686,4.147c0.858,1.177 1.777,2.142 2.76,2.898c0.867,0.675 1.882,1.331 3.044,1.97l5.051,-6.114Z" style="fill:#fff;fill-rule:nonzero;"/>
    <path d="M333.677,128.544l-5.498,4.269l8.359,10.768l-3.942,3.061l-11.727,-15.106l22.377,-17.373l11.242,14.481l-4.097,2.834l-7.706,-9.926l-5.078,3.942l6.26,8.063l-3.93,3.051l-6.26,-8.064Z" style="fill:#fff;fill-rule:nonzero;"/>
    <path d="M53.888,223.587l6.266,0l0,14.27c-3.136,1.327 -6.793,1.991 -10.971,1.991c-2.225,-0 -4.415,-0.335 -6.568,-1.005c-2.154,-0.67 -4.129,-1.676 -5.925,-3.016c-2.238,-1.704 -3.956,-3.812 -5.153,-6.325c-1.198,-2.511 -1.796,-5.153 -1.796,-7.925c0,-2.499 0.462,-4.848 1.386,-7.047c0.924,-2.2 2.196,-4.129 3.816,-5.788c1.62,-1.659 3.501,-2.961 5.642,-3.904c2.14,-0.944 4.434,-1.416 6.881,-1.416c4.372,-0 8.341,1.575 11.907,4.724l-4.431,4.432c-2.264,-1.991 -4.756,-2.987 -7.476,-2.987c-2.083,0 -3.979,0.54 -5.691,1.62c-1.711,1.08 -3.077,2.525 -4.099,4.334c-1.022,1.809 -1.532,3.819 -1.532,6.032c0,1.783 0.338,3.448 1.015,4.997c0.676,1.549 1.613,2.87 2.811,3.963c1.47,1.276 3.058,2.131 4.763,2.567c1.705,0.437 3.305,0.628 4.802,0.576c1.327,-0.039 2.778,-0.208 4.353,-0.508l-0,-9.585Z" style="fill:#fff;fill-rule:nonzero;"/>
    <path d="M74.459,224.193l0,8.413l16.475,-0l0,6.032l-23.112,0l0,-34.239l22.156,-0l-0.332,6.012l-15.187,0l0,7.769l12.337,-0l0,6.013l-12.337,-0Z" style="fill:#fff;fill-rule:nonzero;"/>
    <path d="M116.756,234.774l-8.823,-15.052l-4.138,18.916l-6.872,0l7.828,-35.782l12.005,20.009l11.986,-20.009l7.828,35.782l-6.891,0l-4.138,-18.916l-8.785,15.052Z" style="fill:#fff;fill-rule:nonzero;"/>
    <path d="M149.899,224.193l-0,8.413l16.475,-0l0,6.032l-23.112,0l0,-34.239l22.156,-0l-0.332,6.012l-15.187,0l-0,7.769l12.337,-0l0,6.013l-12.337,-0Z" style="fill:#fff;fill-rule:nonzero;"/>
    <rect x="173.574" y="204.399" width="6.656" height="34.239" style="fill:#fff;fill-rule:nonzero;"/>
    <path d="M210.015,204.399l6.656,-0l0,35.391l-21.902,-21.532l-0,20.38l-6.637,0l-0,-35.625l21.883,21.531l-0,-20.145Z" style="fill:#fff;fill-rule:nonzero;"/>
    <path d="M245.129,232.606l0,6.032l-20.556,0l0,-34.239l6.637,-0l0,28.207l13.919,-0Z" style="fill:#fff;fill-rule:nonzero;"/>
    <path d="M258.789,224.193l0,8.413l16.476,-0l-0,6.032l-23.113,0l-0,-34.239l22.156,-0l-0.331,6.012l-15.188,0l0,7.769l12.337,-0l-0,6.013l-12.337,-0Z" style="fill:#fff;fill-rule:nonzero;"/>
    <path d="M289.101,210.411l-0,7.828l4.919,-0c1.068,-0 1.985,-0.384 2.753,-1.152c0.768,-0.768 1.152,-1.692 1.152,-2.772c-0,-1.067 -0.384,-1.985 -1.152,-2.752c-0.768,-0.768 -1.685,-1.152 -2.753,-1.152l-4.919,0Zm-0,13.782l-0,8.413l6.462,-0c1.093,-0 2.02,-0.403 2.781,-1.21c0.762,-0.807 1.142,-1.795 1.142,-2.967c0,-1.172 -0.416,-2.171 -1.249,-2.997c-0.833,-0.826 -1.829,-1.239 -2.987,-1.239l-6.149,-0Zm11.478,-4.08c0.833,0.195 1.552,0.445 2.157,0.751c0.606,0.306 1.214,0.762 1.826,1.367c0.611,0.605 1.125,1.412 1.542,2.42c0.416,1.009 0.624,2.268 0.624,3.778c0,0.767 -0.068,1.608 -0.205,2.518c-0.136,0.911 -0.396,1.818 -0.78,2.723c-0.384,0.904 -0.944,1.731 -1.679,2.479c-0.735,0.748 -1.685,1.35 -2.85,1.806c-1.165,0.455 -2.6,0.683 -4.305,0.683l-14.445,0l0,-34.239l13.43,-0c1.757,-0 3.322,0.361 4.695,1.083c1.373,0.722 2.453,1.718 3.241,2.987c0.787,1.268 1.181,2.716 1.181,4.343c-0,3.657 -1.477,6.09 -4.432,7.301Z" style="fill:#fff;fill-rule:nonzero;"/>
    <path d="M320.33,232.645l-2.752,5.993l-7.106,0l16.554,-35.84l16.554,35.84l-7.106,0l-2.752,-5.993l-13.392,-0Zm10.854,-5.544l-4.158,-9.097l-4.158,9.097l8.316,0Z" style="fill:#fff;fill-rule:nonzero;"/>
    <path d="M367.137,214.803c0,-0.612 -0.11,-1.223 -0.332,-1.835c-0.221,-0.612 -0.64,-1.122 -1.259,-1.532c-0.618,-0.41 -1.519,-0.615 -2.703,-0.615l-5.915,-0l-0,7.964l5.915,0c1.184,0 2.085,-0.205 2.703,-0.615c0.619,-0.41 1.038,-0.924 1.259,-1.542c0.222,-0.618 0.332,-1.226 0.332,-1.825Zm6.423,-0.195c0,2.264 -0.55,4.213 -1.65,5.846c-1.1,1.634 -2.619,2.828 -4.558,3.582l8.628,14.602l-7.593,0l-7.34,-13.801l-4.119,0l-0,13.801l-6.657,0l0,-34.239l12.572,-0c2.134,-0 4.005,0.426 5.612,1.278c1.607,0.853 2.86,2.047 3.758,3.582c0.898,1.536 1.347,3.319 1.347,5.349Z" style="fill:#fff;fill-rule:nonzero;"/>
    <path d="M404.359,204.399l6.657,-0l0,35.391l-21.902,-21.532l-0,20.38l-6.637,0l0,-35.625l21.882,21.531l-0,-20.145Z" style="fill:#fff;fill-rule:nonzero;"/>
</svg>
